<svg width="448" height="448" viewBox="0 0 448 448" fill="none" xmlns="http://www.w3.org/2000/svg">
<g clip-path="url(#clip0_330_46)">
<path d="M224 0C347.765 0 448 100.236 448 224.001C448 347.775 347.765 448.001 224 448.001C100.235 448.001 0 347.775 0 224.001C0 100.236 100.235 0 224 0ZM131.722 87.6522C122.859 87.5548 113.997 90.8368 107.277 97.547C93.8657 110.968 94.1579 132.949 107.763 146.545L145.006 183.787L138.5 190.293C134.712 194.081 134.157 200.49 138.111 204.444L151.891 218.214C155.846 222.178 162.254 221.624 166.042 217.835L169.139 214.738C170.756 213.121 174.282 213.073 177.165 215.956L258.642 297.404C259.548 298.32 260.785 298.836 262.08 298.836H287.606L293.06 304.289C298.728 309.957 308.058 309.957 313.727 304.289C316.443 301.54 317.967 297.831 317.967 293.966C317.967 290.101 316.443 286.391 313.727 283.642L308.273 278.179V252.652C308.273 252.011 308.146 251.377 307.9 250.786C307.655 250.194 307.295 249.657 306.841 249.204L225.373 167.737C222.481 164.854 222.539 161.358 224.156 159.751L227.272 156.605C231.051 152.827 231.616 146.438 227.652 142.484L213.862 128.703C209.898 124.739 203.509 125.275 199.73 129.063L193.526 135.267L156.284 98.0244C149.771 91.4833 140.952 87.759 131.722 87.6522ZM131.654 97.3134C138.336 97.4399 144.703 100.173 149.398 104.929L186.641 142.172L151.891 176.902L114.639 139.659C104.666 129.677 104.53 114.075 114.172 104.433C116.46 102.136 119.187 100.322 122.19 99.1009C125.193 97.8795 128.412 97.265 131.654 97.3134ZM123.96 111.581C122.666 114.927 122.041 118.493 122.119 122.08C122.246 129.209 125.089 136.328 130.563 141.811L151.911 163.15L158.797 156.264L137.448 134.926C133.757 131.225 131.926 126.55 131.839 121.914C131.791 119.605 132.198 117.308 133.037 115.155L123.96 111.581ZM206.976 135.569L220.767 149.34C220.621 149.194 220.845 149.243 220.377 149.73L159.157 210.949C158.699 211.407 158.631 211.183 158.767 211.339L145.006 197.558C145.152 197.704 144.928 197.656 145.386 197.179L154.823 187.751C155.206 187.465 155.544 187.124 155.826 186.738L196.438 146.126C196.815 145.847 197.149 145.516 197.432 145.142L206.616 135.948C207.073 135.491 207.122 135.715 206.976 135.569ZM214.758 169.12C215.634 171.126 216.871 173.016 218.488 174.623L298.524 254.668V280.185C298.521 280.829 298.647 281.467 298.892 282.062C299.138 282.657 299.499 283.198 299.955 283.653L306.841 290.537C307.307 290.981 307.679 291.516 307.933 292.108C308.186 292.7 308.317 293.336 308.317 293.98C308.317 294.624 308.186 295.262 307.933 295.854C307.679 296.446 307.307 296.979 306.841 297.423C306.397 297.89 305.863 298.261 305.271 298.515C304.679 298.768 304.042 298.9 303.398 298.9C302.754 298.9 302.117 298.768 301.525 298.515C300.933 298.261 300.399 297.89 299.955 297.423L293.07 290.537C292.617 290.086 292.079 289.728 291.488 289.484C290.896 289.24 290.262 289.114 289.622 289.116H264.106L184.05 209.07C182.469 207.493 180.606 206.229 178.557 205.34L214.758 169.12ZM200.09 197.558L193.205 204.444L268.975 280.215L275.851 273.329L200.09 197.558ZM313.746 321.392L310.298 324.838C299.391 335.746 292.174 350.394 292.174 361.964C292.174 373.817 301.894 383.537 313.746 383.537C319.459 383.517 324.932 381.236 328.97 377.195C333.008 373.153 335.283 367.677 335.299 361.964C335.299 350.501 328.365 336.009 317.184 324.838L313.746 321.392ZM313.746 336.682C320.749 345.593 325.56 356.062 325.56 361.964C325.56 368.557 320.33 373.798 313.746 373.798C312.19 373.807 310.647 373.507 309.207 372.916C307.767 372.324 306.459 371.452 305.359 370.351C304.258 369.251 303.387 367.943 302.795 366.503C302.204 365.063 301.904 363.521 301.913 361.964C301.913 356.16 306.88 345.476 313.746 336.682Z" fill="#333333"/>
</g>
<defs>
<clipPath id="clip0_330_46">
<rect width="448" height="448" fill="white"/>
</clipPath>
</defs>
</svg>
