<svg width="331" height="331" viewBox="0 0 331 331" fill="none" xmlns="http://www.w3.org/2000/svg">
<path d="M277.006 38.4791C251.313 17.8973 220.316 5.01186 187.604 1.31414C154.892 -2.38358 121.802 3.25757 92.1628 17.5847C70.0239 29.0071 50.6251 45.0943 35.3035 64.7374C19.9819 84.3804 9.10193 107.112 3.41344 131.366C-1.29155 153.811 -0.762349 177.039 4.95999 199.246C10.6823 221.454 21.444 242.045 36.41 259.422C27.0579 269.658 18.5808 280.661 11.0678 292.315C0.103439 309.692 -2.27562 320.967 3.62031 326.863C4.7096 327.888 5.9951 328.683 7.39944 329.198C8.80377 329.714 10.2979 329.94 11.7919 329.863C25.4718 327.408 38.2322 321.296 48.7191 312.175C56.4769 306.486 64.3381 299.969 71.5788 293.453C84.5911 303.49 98.7174 311.993 113.678 318.795C129.204 325.947 145.947 330.089 163.017 331C165.749 330.986 168.477 330.813 171.189 330.483C178.118 329.957 184.665 327.107 189.772 322.395C194.878 317.683 198.244 311.384 199.324 304.52C200.417 294.417 198.242 284.23 193.118 275.454C188.783 268.321 186.894 259.968 187.739 251.664C191.152 236.872 209.771 235.838 233.769 235.734C240.366 236.017 246.975 235.74 253.525 234.907C274.673 230.465 293.746 219.126 307.75 202.669C321.754 186.213 329.896 165.571 330.897 143.985C332.448 107.058 312.278 67.6485 277.006 38.4791ZM70.8547 280.213C68.2687 282.592 65.7863 284.867 63.4072 286.936C35.2722 311.864 14.7916 321.588 10.9644 319.622C8.79219 315.588 18.4119 295.314 43.2369 267.386C45.2022 265.007 47.4778 262.525 49.8569 260.042C52.6497 257.043 55.6494 253.939 58.8559 250.733C65.2691 244.32 71.2684 238.734 77.0609 233.666L77.1954 233.552C81.8008 241.796 88.6045 248.6 96.8485 253.205L96.7761 253.288C91.7077 259.08 86.0186 265.183 79.7089 271.596C76.7506 274.627 73.7509 277.523 70.8547 280.213ZM124.228 214.84C118.499 225.652 111.618 235.813 103.706 245.147C95.7033 241.199 89.2195 234.73 85.2532 226.735C94.2743 219.167 104.001 212.482 114.298 206.772C115.177 208.347 116.293 209.778 117.608 211.013C119.528 212.73 121.782 214.033 124.228 214.84ZM122.056 196.532C122.16 195.29 122.367 194.049 122.573 192.808C123.745 183.118 127.643 173.96 133.813 166.397C139.984 158.835 148.174 153.18 157.432 150.088C164.87 147.7 172.591 146.308 180.395 145.951C176.973 149.901 174.56 154.621 173.361 159.708C172.512 163.788 172.165 167.956 172.327 172.12C172.38 174.572 172.277 177.026 172.017 179.464C171.169 187.08 167.505 194.103 161.745 199.156C155.984 204.208 148.543 206.925 140.882 206.772C139.847 206.772 138.813 206.772 137.779 206.668C135.71 206.565 133.952 206.255 133.124 206.151C131.344 205.881 129.582 205.501 127.849 205.013C126.659 204.797 125.55 204.261 124.642 203.462L124.022 202.841C122.745 200.984 122.06 198.785 122.056 196.532ZM251.767 224.667C245.795 225.373 239.778 225.615 233.769 225.391C212.461 225.391 183.188 225.287 177.706 249.388C176.223 259.878 178.338 270.561 183.705 279.695C187.778 286.592 189.654 294.566 189.084 302.555C188.467 307.313 186.187 311.698 182.646 314.936C179.106 318.173 174.534 320.053 169.741 320.243C151.833 320.986 134.022 317.253 117.919 309.382C104.233 303.166 91.2331 295.539 79.1297 286.626C81.9225 283.833 84.5084 281.35 86.9909 278.868C106.034 260.827 122.094 239.879 134.572 216.805C136.425 217.03 138.291 217.134 140.158 217.116H141.089C151.28 217.265 161.161 213.604 168.794 206.85C176.428 200.096 181.266 190.736 182.36 180.602C182.618 177.817 182.722 175.02 182.671 172.224C182.536 168.794 182.779 165.36 183.395 161.983C184.946 155.467 191.256 147.192 198.393 147.192C199.018 147.21 199.641 147.279 200.255 147.399C201.599 147.641 202.983 147.341 204.107 146.566C205.231 145.791 206.003 144.603 206.254 143.261C206.335 142.923 206.37 142.575 206.358 142.227C206.35 141.048 205.933 139.909 205.178 139.003C204.424 138.098 203.378 137.482 202.22 137.262C186.224 134.214 169.718 135.246 154.225 140.262C142.397 144.239 132.028 151.664 124.453 161.58C116.877 171.497 112.44 183.453 111.712 195.911C111.704 196.157 111.739 196.402 111.816 196.635C89.5085 209.145 69.185 224.902 51.5119 243.389C48.6156 246.285 45.8228 249.181 43.1334 252.078C29.4362 235.914 19.6433 216.815 14.5132 196.259C9.38321 175.703 9.05373 154.242 13.5503 133.538C18.8784 110.78 29.0829 89.4487 43.4591 71.0186C57.8353 52.5885 76.0405 37.4985 96.8175 26.7907C118.778 15.9292 142.966 10.3336 167.465 10.4475C204.901 10.1952 241.268 22.9147 270.386 46.4438C303.175 73.5444 322.001 109.851 320.553 143.572C319.728 162.81 312.519 181.226 300.063 195.912C287.606 210.597 270.613 220.714 251.767 224.667ZM206.875 31.0316C200.738 31.0316 194.738 32.8515 189.635 36.2613C184.532 39.6711 180.555 44.5175 178.206 50.1877C175.857 55.8579 175.243 62.0973 176.44 68.1167C177.637 74.1362 180.593 79.6655 184.933 84.0053C189.272 88.345 194.802 91.3005 200.821 92.4978C206.841 93.6952 213.08 93.0807 218.75 90.732C224.42 88.3833 229.267 84.4059 232.677 79.3029C236.086 74.1998 237.906 68.2002 237.906 62.0628C237.882 53.8404 234.604 45.9617 228.79 40.1476C222.976 34.3334 215.097 31.0561 206.875 31.0316ZM206.875 82.7503C202.783 82.7503 198.784 81.537 195.382 79.2639C191.98 76.9907 189.328 73.7598 187.762 69.9796C186.196 66.1995 185.787 62.0399 186.585 58.0269C187.383 54.0139 189.354 50.3278 192.247 47.4346C195.14 44.5414 198.826 42.5711 202.839 41.7728C206.852 40.9746 211.012 41.3843 214.792 42.9501C218.572 44.5159 221.803 47.1674 224.076 50.5695C226.349 53.9715 227.562 57.9712 227.562 62.0628C227.546 67.5445 225.361 72.7969 221.485 76.673C217.609 80.5491 212.357 82.734 206.875 82.7503ZM113.781 41.3753C107.644 41.3753 101.644 43.1953 96.5412 46.605C91.4381 50.0148 87.4608 54.8612 85.1121 60.5314C82.7634 66.2017 82.1489 72.441 83.3462 78.4605C84.5436 84.48 87.499 90.0092 91.8388 94.349C96.1786 98.6888 101.708 101.644 107.727 102.842C113.747 104.039 119.986 103.424 125.656 101.076C131.327 98.727 136.173 94.7497 139.583 89.6466C142.993 84.5436 144.812 78.544 144.812 72.4066C144.788 64.1841 141.511 56.3055 135.697 50.4913C129.882 44.6771 122.004 41.3999 113.781 41.3753ZM113.781 93.0941C109.69 93.0941 105.69 91.8808 102.288 89.6076C98.8858 87.3344 96.2343 84.1035 94.6685 80.3234C93.1027 76.5432 92.693 72.3836 93.4912 68.3707C94.2895 64.3577 96.2598 60.6715 99.153 57.7783C102.046 54.8851 105.732 52.9148 109.745 52.1166C113.758 51.3184 117.918 51.728 121.698 53.2938C125.478 54.8596 128.709 57.5112 130.982 60.9132C133.255 64.3153 134.469 68.315 134.469 72.4066C134.452 77.8882 132.268 83.1407 128.391 87.0168C124.515 90.8929 119.263 93.0777 113.781 93.0941ZM62.0625 113.782C55.9251 113.782 49.9255 115.602 44.8225 119.011C39.7194 122.421 35.742 127.267 33.3934 132.938C31.0447 138.608 30.4302 144.847 31.6275 150.867C32.8249 156.886 35.7803 162.415 40.1201 166.755C44.4599 171.095 49.9891 174.05 56.0086 175.248C62.0281 176.445 68.2674 175.831 73.9376 173.482C79.6079 171.133 84.4543 167.156 87.864 162.053C91.2738 156.95 93.0937 150.95 93.0937 144.813C93.0692 136.59 89.792 128.712 83.9778 122.898C78.1636 117.083 70.2849 113.806 62.0625 113.782ZM62.0625 165.5C57.9709 165.5 53.9712 164.287 50.5691 162.014C47.1671 159.741 44.5155 156.51 42.9497 152.73C41.384 148.949 40.9743 144.79 41.7725 140.777C42.5707 136.764 44.541 133.078 47.4342 130.185C50.3274 127.291 54.0136 125.321 58.0266 124.523C62.0396 123.725 66.1991 124.134 69.9793 125.7C73.7594 127.266 76.9904 129.917 79.2635 133.319C81.5367 136.722 82.75 140.721 82.75 144.813C82.7336 150.294 80.5488 155.547 76.6727 159.423C72.7966 163.299 67.5441 165.484 62.0625 165.5ZM268.937 103.438C262.8 103.438 256.801 105.258 251.697 108.668C246.594 112.077 242.617 116.924 240.268 122.594C237.92 128.264 237.305 134.504 238.502 140.523C239.7 146.542 242.655 152.072 246.995 156.412C251.335 160.751 256.864 163.707 262.884 164.904C268.903 166.101 275.142 165.487 280.813 163.138C286.483 160.79 291.329 156.812 294.739 151.709C298.149 146.606 299.969 140.606 299.969 134.469C299.944 126.247 296.667 118.368 290.853 112.554C285.039 106.74 277.16 103.462 268.937 103.438ZM268.937 155.157C264.846 155.157 260.846 153.943 257.444 151.67C254.042 149.397 251.391 146.166 249.825 142.386C248.259 138.606 247.849 134.446 248.647 130.433C249.446 126.42 251.416 122.734 254.309 119.841C257.202 116.948 260.889 114.977 264.902 114.179C268.915 113.381 273.074 113.791 276.854 115.356C280.634 116.922 283.865 119.574 286.139 122.976C288.412 126.378 289.625 130.377 289.625 134.469C289.609 139.951 287.424 145.203 283.548 149.079C279.672 152.955 274.419 155.14 268.937 155.157Z" fill="white"/>
</svg>
