<svg width="375" height="351" viewBox="0 0 375 351" fill="none" xmlns="http://www.w3.org/2000/svg">
<path d="M326.613 0H120.968C94.2944 0 72.5806 21.7137 72.5806 48.3871V60.4839H48.3871C21.7077 60.4839 0 82.1915 0 108.871V266.129C0 290.758 18.5081 311.153 42.3387 314.141V338.71C42.3387 343.173 44.7944 347.274 48.7319 349.373C50.5161 350.329 52.4819 350.806 54.4355 350.806C56.7823 350.806 59.1169 350.123 61.1431 348.774L112.53 314.516H254.032C280.712 314.516 302.419 292.808 302.419 266.129V254.032H326.613C353.286 254.032 375 232.319 375 205.645V48.3871C375 21.7137 353.286 0 326.613 0ZM278.226 266.129C278.226 279.472 267.375 290.323 254.032 290.323H108.871C106.482 290.323 104.147 291.03 102.163 292.355L66.5323 316.107V302.419C66.5323 295.742 61.1129 290.323 54.4355 290.323H48.3871C35.0444 290.323 24.1935 279.472 24.1935 266.129V108.871C24.1935 95.5282 35.0444 84.6774 48.3871 84.6774H254.032C267.375 84.6774 278.226 95.5282 278.226 108.871V266.129Z" fill="#333333"/>
<path d="M102.823 254.033H66.5323C63.1936 254.033 60.4839 251.324 60.4839 247.985V187.501C60.4839 184.162 63.1936 181.453 66.5323 181.453H102.823C106.161 181.453 108.871 184.162 108.871 187.501V247.985C108.871 251.324 106.161 254.033 102.823 254.033ZM169.355 254.033H133.065C129.726 254.033 127.016 251.324 127.016 247.985V127.017C127.016 123.678 129.726 120.969 133.065 120.969H169.355C172.694 120.969 175.403 123.678 175.403 127.017V247.985C175.403 251.324 172.694 254.033 169.355 254.033ZM235.887 254.033H199.597C196.258 254.033 193.548 251.324 193.548 247.985V163.307C193.548 159.969 196.258 157.259 199.597 157.259H235.887C239.226 157.259 241.935 159.969 241.935 163.307V247.985C241.935 251.324 239.226 254.033 235.887 254.033Z" fill="#333333"/>
</svg>
