<svg width="393" height="393" viewBox="0 0 393 393" fill="none" xmlns="http://www.w3.org/2000/svg">
<path d="M328.61 45.4362C298.104 20.9992 261.302 5.70018 222.462 1.30984C183.623 -3.0805 144.335 3.6173 109.144 20.6281C82.8579 34.19 59.8255 53.2905 41.634 76.6129C23.4425 99.9354 10.5246 126.925 3.77055 155.722C-1.81574 182.371 -1.18741 209.95 5.60679 236.317C12.401 262.685 25.1784 287.132 42.9477 307.764C31.8439 319.918 21.7789 332.982 12.8587 346.818C-0.159447 367.451 -2.98414 380.837 4.01618 387.837C5.3095 389.055 6.83579 389.998 8.50317 390.61C10.1706 391.222 11.9445 391.491 13.7184 391.399C29.9608 388.485 45.1113 381.228 57.5624 370.398C66.7734 363.643 76.1071 355.906 84.704 348.169C100.154 360.087 116.926 370.183 134.689 378.258C153.123 386.751 173.002 391.668 193.27 392.75C196.513 392.733 199.753 392.528 202.972 392.136C211.199 391.511 218.973 388.127 225.036 382.533C231.099 376.938 235.095 369.46 236.377 361.31C237.675 349.314 235.093 337.219 229.009 326.8C223.861 318.33 221.619 308.413 222.622 298.553C226.675 280.991 248.781 279.762 277.274 279.64C285.107 279.975 292.954 279.647 300.731 278.657C325.84 273.384 348.485 259.92 365.113 240.381C381.74 220.842 391.407 196.334 392.595 170.705C394.437 126.861 370.489 80.0693 328.61 45.4362ZM83.8443 332.449C80.774 335.274 77.8265 337.976 75.0018 340.432C41.5968 370.03 17.2799 381.574 12.7359 379.241C10.1568 374.451 21.5784 350.38 51.0534 317.22C53.3868 314.396 56.0887 311.448 58.9134 308.501C62.2293 304.939 65.7909 301.255 69.5981 297.447C77.2124 289.833 84.3355 283.201 91.213 277.183L91.3727 277.048C96.8408 286.837 104.919 294.915 114.707 300.383L114.621 300.481C108.603 307.358 101.849 314.604 94.357 322.219C90.8446 325.817 87.2831 329.256 83.8443 332.449ZM147.216 254.832C140.413 267.669 132.244 279.733 122.85 290.816C113.347 286.128 105.649 278.447 100.94 268.955C111.651 259.969 123.199 252.032 135.426 245.252C136.469 247.123 137.794 248.821 139.356 250.287C141.635 252.326 144.311 253.873 147.216 254.832ZM144.636 233.094C144.759 231.62 145.005 230.146 145.251 228.672C146.641 217.168 151.269 206.294 158.596 197.315C165.922 188.336 175.646 181.621 186.638 177.951C195.469 175.115 204.637 173.463 213.903 173.038C209.84 177.728 206.974 183.333 205.551 189.372C204.544 194.217 204.131 199.166 204.323 204.11C204.387 207.021 204.264 209.934 203.955 212.83C202.949 221.871 198.599 230.21 191.759 236.209C184.919 242.208 176.084 245.434 166.988 245.252C165.76 245.252 164.532 245.252 163.304 245.129C160.848 245.006 158.76 244.638 157.777 244.515C155.664 244.194 153.572 243.743 151.514 243.164C150.101 242.907 148.785 242.27 147.707 241.322L146.97 240.585C145.454 238.381 144.641 235.769 144.636 233.094ZM298.643 266.499C291.553 267.337 284.409 267.625 277.274 267.358C251.975 267.358 217.219 267.236 210.71 295.851C208.95 308.306 211.46 320.99 217.833 331.835C222.669 340.024 224.896 349.491 224.219 358.977C223.487 364.625 220.779 369.832 216.576 373.676C212.372 377.52 206.944 379.752 201.253 379.977C179.99 380.86 158.843 376.428 139.724 367.082C123.475 359.701 108.04 350.646 93.6693 340.063C96.9852 336.747 100.056 333.8 103.003 330.852C125.613 309.433 144.682 284.561 159.497 257.165C161.697 257.432 163.912 257.555 166.129 257.533H167.234C179.335 257.71 191.065 253.364 200.129 245.345C209.193 237.326 214.937 226.213 216.236 214.181C216.543 210.874 216.666 207.553 216.605 204.233C216.445 200.161 216.733 196.083 217.464 192.074C219.306 184.337 226.798 174.512 235.272 174.512C236.014 174.533 236.754 174.615 237.483 174.758C239.078 175.045 240.722 174.69 242.057 173.769C243.391 172.849 244.307 171.438 244.606 169.845C244.702 169.443 244.743 169.03 244.729 168.617C244.719 167.218 244.224 165.865 243.328 164.79C242.432 163.715 241.191 162.984 239.816 162.722C220.824 159.104 201.225 160.329 182.831 166.284C168.787 171.006 156.476 179.821 147.482 191.596C138.487 203.37 133.219 217.565 132.355 232.357C132.345 232.648 132.386 232.94 132.478 233.217C105.992 248.069 81.8619 266.778 60.8784 288.728C57.4396 292.167 54.1237 295.605 50.9306 299.044C34.6676 279.853 23.0404 257.176 16.9495 232.77C10.8585 208.364 10.4673 182.883 15.8062 158.301C22.1323 131.279 34.2482 105.953 51.3172 84.0707C68.3862 62.1885 90.0015 44.2719 114.67 31.5584C140.744 18.6625 169.463 12.0187 198.551 12.154C242.998 11.8544 286.178 26.9564 320.75 54.8928C359.681 87.0696 382.033 130.177 380.314 170.214C379.335 193.056 370.775 214.922 355.985 232.358C341.196 249.793 321.02 261.806 298.643 266.499ZM245.343 36.5937C238.056 36.5937 230.932 38.7546 224.873 42.803C218.815 46.8514 214.092 52.6056 211.304 59.338C208.515 66.0703 207.785 73.4783 209.207 80.6253C210.629 87.7723 214.138 94.3372 219.29 99.4899C224.443 104.643 231.008 108.152 238.155 109.573C245.302 110.995 252.71 110.265 259.442 107.477C266.175 104.688 271.929 99.9657 275.977 93.9067C280.026 87.8478 282.186 80.7245 282.186 73.4375C282.157 63.6749 278.266 54.3204 271.363 47.4172C264.46 40.514 255.105 36.6229 245.343 36.5937ZM245.343 98C240.485 98 235.736 96.5594 231.697 93.8604C227.657 91.1615 224.509 87.3253 222.65 82.8371C220.791 78.3489 220.304 73.4102 221.252 68.6455C222.2 63.8809 224.539 59.5043 227.974 56.0691C231.41 52.634 235.786 50.2947 240.551 49.3469C245.315 48.3992 250.254 48.8856 254.742 50.7447C259.231 52.6037 263.067 55.752 265.766 59.7913C268.465 63.8305 269.905 68.5795 269.905 73.4375C269.886 79.9459 267.292 86.1821 262.69 90.7843C258.087 95.3864 251.851 97.9805 245.343 98ZM134.811 48.875C127.524 48.875 120.401 51.0358 114.342 55.0842C108.283 59.1327 103.561 64.8869 100.772 71.6192C97.9837 78.3515 97.254 85.7596 98.6757 92.9066C100.097 100.054 103.606 106.618 108.759 111.771C113.912 116.924 120.477 120.433 127.624 121.855C134.771 123.276 142.179 122.547 148.911 119.758C155.643 116.969 161.397 112.247 165.446 106.188C169.494 100.129 171.655 93.0057 171.655 85.7187C171.626 75.9561 167.735 66.6017 160.832 59.6984C153.929 52.7952 144.574 48.9041 134.811 48.875ZM134.811 110.281C129.953 110.281 125.205 108.841 121.165 106.142C117.126 103.443 113.978 99.6066 112.119 95.1184C110.26 90.6302 109.773 85.6915 110.721 80.9268C111.669 76.1621 114.008 71.7855 117.443 68.3504C120.878 64.9153 125.255 62.5759 130.02 61.6282C134.784 60.6804 139.723 61.1668 144.211 63.0259C148.699 64.885 152.535 68.0332 155.234 72.0725C157.933 76.1118 159.374 80.8607 159.374 85.7187C159.355 92.2271 156.76 98.4634 152.158 103.066C147.556 107.668 141.32 110.262 134.811 110.281ZM73.4052 134.844C66.1182 134.844 58.9949 137.005 52.9359 141.053C46.877 145.101 42.1547 150.856 39.3661 157.588C36.5774 164.32 35.8478 171.728 37.2694 178.875C38.6911 186.022 42.2001 192.587 47.3528 197.74C52.5055 202.893 59.0704 206.402 66.2174 207.823C73.3644 209.245 80.7724 208.515 87.5047 205.727C94.237 202.938 99.9912 198.216 104.04 192.157C108.088 186.098 110.249 178.974 110.249 171.687C110.22 161.925 106.329 152.57 99.4255 145.667C92.5223 138.764 83.1678 134.873 73.4052 134.844ZM73.4052 196.25C68.5472 196.25 63.7983 194.809 59.759 192.11C55.7198 189.411 52.5715 185.575 50.7124 181.087C48.8534 176.599 48.3669 171.66 49.3147 166.896C50.2624 162.131 52.6018 157.754 56.0369 154.319C59.4721 150.884 63.8487 148.545 68.6133 147.597C73.378 146.649 78.3167 147.136 82.8049 148.995C87.2931 150.854 91.1292 154.002 93.8282 158.041C96.5272 162.081 97.9677 166.829 97.9677 171.687C97.9483 178.196 95.3542 184.432 90.7521 189.034C86.1499 193.636 79.9136 196.231 73.4052 196.25ZM319.03 122.562C311.743 122.562 304.62 124.723 298.561 128.772C292.502 132.82 287.78 138.574 284.991 145.307C282.202 152.039 281.473 159.447 282.894 166.594C284.316 173.741 287.825 180.306 292.978 185.459C298.13 190.611 304.695 194.12 311.842 195.542C318.989 196.964 326.397 196.234 333.13 193.445C339.862 190.657 345.616 185.934 349.665 179.875C353.713 173.817 355.874 166.693 355.874 159.406C355.845 149.644 351.954 140.289 345.05 133.386C338.147 126.483 328.793 122.592 319.03 122.562ZM319.03 183.969C314.172 183.969 309.423 182.528 305.384 179.829C301.345 177.13 298.197 173.294 296.337 168.806C294.478 164.318 293.992 159.379 294.94 154.614C295.887 149.85 298.227 145.473 301.662 142.038C305.097 138.603 309.474 136.263 314.238 135.316C319.003 134.368 323.942 134.854 328.43 136.713C332.918 138.572 336.754 141.721 339.453 145.76C342.152 149.799 343.593 154.548 343.593 159.406C343.573 165.915 340.979 172.151 336.377 176.753C331.775 181.355 325.539 183.949 319.03 183.969Z" fill="#333333"/>
</svg>
