<svg width="512" height="512" viewBox="0 0 512 512" fill="none" xmlns="http://www.w3.org/2000/svg">
<g clip-path="url(#clip0_330_24)">
<path d="M453.188 258.493C453.375 235.227 436.931 213.874 415.181 205.781C433.181 184.606 432.266 153.135 412.485 133.064C398.047 118.425 376.466 112.893 355.997 120.112C353.848 92.426 330.758 70.392 302.094 70.392C282.614 70.392 265.524 80.786 256.008 96.326C246.545 80.876 229.641 70.392 209.454 70.392C195.008 70.51 181.478 76.228 171.344 86.501C162.319 95.657 156.986 107.452 156.004 120.105C135.643 112.926 114.021 118.358 99.516 133.064C79.49 153.383 79.062 184.895 96.818 205.781C75.07 213.876 58.626 235.23 58.813 258.493C59.01 282.038 74.096 301.91 95.383 309.099C88.808 318.297 85.252 329.259 85.345 340.775C85.65 376.841 121.005 402.964 156.047 391.636C158.117 419.576 181.488 441.61 209.892 441.61C228.472 441.61 245.835 432.303 256.002 415.803C266.231 432.412 283.666 441.61 302.111 441.61C330.513 441.61 353.882 419.579 355.956 391.635C390.992 402.958 426.353 376.86 426.658 340.767C426.752 329.272 423.205 318.326 416.646 309.137C437.855 301.982 452.99 282.079 453.188 258.493ZM209.891 425.61C185.619 425.61 167.795 403.093 172.548 380.384C172.548 380.38 172.548 380.378 172.548 380.375C173.941 373.691 166.368 368.115 160.342 372.056C160.336 372.06 160.327 372.06 160.321 372.064C135.479 388.424 101.593 370.778 101.345 340.642C101.081 306.402 143.382 289.078 167.235 314.392C170.259 317.619 175.321 317.767 178.539 314.728C181.757 311.704 181.906 306.634 178.875 303.424C172.241 296.378 163.711 291.353 154.578 288.653C161.182 277.127 173.557 269.485 187.25 269.37C191.671 269.33 195.227 265.721 195.187 261.308C195.147 256.909 191.578 253.371 187.187 253.371C187.163 253.371 187.14 253.371 187.125 253.371C165.517 253.549 146.169 266.904 137.884 286.426C127.454 286.719 117.528 289.899 109.066 295.648C89.852 293.8 74.97 277.97 74.813 258.37C74.654 238.563 92.5 220.185 112.716 218.585C120.283 222.608 128.904 224.901 138.048 224.901C148.256 224.901 157.789 222.04 166.097 216.973C176.681 227.595 190.392 232.932 204.501 232.932C209.609 232.932 212.851 229.073 212.821 224.877C212.792 220.77 209.614 216.931 204.501 216.931C183.501 216.931 166.489 200.07 166.36 179.259C166.329 174.86 162.758 171.313 158.36 171.313C158.344 171.313 158.329 171.313 158.305 171.313C153.891 171.344 150.328 174.946 150.359 179.368C150.416 188.13 152.586 196.55 156.577 204.088C150.897 207.256 144.585 208.898 138.046 208.898C104.424 208.898 87.316 168.222 110.906 144.297C124.368 130.644 145.283 129.468 160.046 139.945C166.006 144.18 174.366 138.742 172.437 131.375C172.039 129.218 171.828 126.961 171.812 124.664C171.634 103.707 188.529 86.552 209.577 86.391C230.319 86.516 247.788 103.11 247.96 123.985L247.962 145.597C242.149 141.897 235.365 139.742 228.234 139.93C208.101 140.091 191.868 156.52 192.047 176.711C192.087 181.101 195.656 184.641 200.047 184.641C200.071 184.641 200.094 184.641 200.118 184.641C204.532 184.601 208.086 180.992 208.048 176.571C207.951 165.297 216.996 156.028 228.368 155.93C228.423 155.93 228.477 155.93 228.54 155.93C237.402 155.93 245.217 161.637 247.966 169.94L247.981 333.971C240.861 330.866 232.075 329.125 222.557 329.134C203.616 329.289 180.008 337.915 180.166 356.049C180.213 361.266 184.062 363.89 187.973 363.964C192.06 364.043 196.214 361.34 196.166 355.907C196.096 349.578 212.988 345.211 222.69 345.133C231.087 345.133 242.802 347.133 247.983 352.806L247.986 387.336C248.163 408.297 231.215 425.61 209.891 425.61ZM402.952 295.658C394.487 289.899 384.554 286.714 374.117 286.422C365.83 266.9 346.484 253.545 324.876 253.367C324.86 253.367 324.836 253.367 324.814 253.367C320.424 253.367 316.853 256.906 316.814 261.304C316.775 265.718 320.33 269.328 324.751 269.366C338.423 269.481 350.781 277.1 357.392 288.596C348.22 291.289 339.789 296.344 333.126 303.42C330.095 306.631 330.244 311.701 333.462 314.724C336.673 317.763 341.743 317.615 344.766 314.388C368.46 289.216 410.922 306.193 410.656 340.63C410.407 370.742 376.539 388.431 351.68 372.06C351.677 372.058 351.673 372.058 351.67 372.056C345.736 368.16 338.034 373.559 339.454 380.371C339.454 380.375 339.454 380.377 339.454 380.38C339.946 382.731 340.188 385.279 340.165 387.943C339.993 408.779 322.954 425.607 302.102 425.607C280.871 425.607 263.838 408.404 264.016 387.263L264.019 352.797C267.286 349.187 276.117 344.998 289.321 345.13C298.541 345.204 315.905 349.634 315.836 355.904C315.796 360.325 319.352 363.935 323.766 363.974C323.79 363.974 323.813 363.974 323.837 363.974C328.227 363.974 331.798 360.435 331.837 356.044C331.997 337.788 308.164 329.282 289.455 329.129C279.824 329.16 271.08 330.876 264.022 333.938L264.037 169.976C266.797 161.618 274.939 156.116 283.642 155.927C295.116 156.025 304.05 165.412 303.955 176.568C303.915 180.989 307.471 184.599 311.885 184.638C311.909 184.638 311.932 184.638 311.956 184.638C316.346 184.638 319.917 181.099 319.956 176.708C320.134 156.567 303.953 140.088 283.776 139.927C283.667 139.927 283.565 139.927 283.463 139.927C276.388 139.927 269.736 142.067 264.04 145.659L264.042 124.053C264.214 103.217 281.253 86.389 302.105 86.389C325.898 86.389 343.848 107.833 339.574 131.342C337.667 138.711 345.954 144.213 351.957 139.944C366.727 129.45 387.653 130.66 401.097 144.296C432.234 175.877 392.626 224.839 355.427 204.087C359.418 196.548 361.587 188.128 361.644 179.367C361.675 174.946 358.113 171.343 353.698 171.312C353.674 171.312 353.658 171.312 353.643 171.312C349.244 171.312 345.675 174.859 345.643 179.258C345.514 200.09 328.479 216.93 307.502 216.93C302.431 216.93 299.211 220.733 299.182 224.876C299.153 229.032 302.348 232.931 307.502 232.931C321.597 232.931 335.313 227.603 345.906 216.972C362.57 227.134 382.753 227.374 399.285 218.584C419.502 220.183 437.349 238.561 437.19 258.369C437.03 278.021 422.071 293.89 402.952 295.658ZM256 37.632C260.421 37.632 264 34.054 264 29.632V8C264 3.579 260.422 0 256 0C251.579 0 248 3.578 248 8V29.633C248 34.054 251.579 37.632 256 37.632ZM256 474.368C251.579 474.368 248 477.946 248 482.368V504C248 508.421 251.578 512 256 512C260.421 512 264 508.422 264 504V482.367C264 477.946 260.421 474.368 256 474.368ZM135.883 63.96C138.116 67.814 143.022 69.079 146.813 66.889C150.641 64.678 151.954 59.788 149.742 55.959L138.93 37.226C136.711 33.406 131.805 32.093 128 34.297C124.172 36.508 122.859 41.398 125.071 45.227L135.883 63.96ZM376.117 448.039C373.898 444.211 368.992 442.898 365.187 445.11C361.359 447.321 360.046 452.211 362.258 456.04L373.07 474.774C375.303 478.628 380.209 479.893 384 477.703C387.828 475.492 389.141 470.602 386.929 466.773L376.117 448.039ZM37.227 138.93L55.961 149.742C59.747 151.929 64.655 150.672 66.891 146.813C69.102 142.985 67.789 138.094 63.962 135.883L45.228 125.071C41.4 122.868 36.517 124.181 34.298 128C32.086 131.828 33.398 136.719 37.227 138.93ZM474.773 373.07L456.039 362.258C452.219 360.055 447.32 361.368 445.109 365.187C442.898 369.015 444.211 373.906 448.038 376.117L466.772 386.929C470.558 389.116 475.466 387.859 477.702 384C479.914 380.172 478.602 375.281 474.773 373.07ZM37.632 256C37.632 251.579 34.054 248 29.632 248H8C3.579 248 0 251.578 0 256C0 260.421 3.578 264 8 264H29.633C34.054 264 37.632 260.421 37.632 256ZM504 248H482.367C477.946 248 474.367 251.578 474.367 256C474.367 260.421 477.945 264 482.367 264H504C508.421 264 512 260.422 512 256C512 251.579 508.422 248 504 248ZM55.961 362.258L37.227 373.07C33.399 375.281 32.086 380.171 34.298 384C36.531 387.854 41.437 389.119 45.228 386.929L63.962 376.117C67.79 373.906 69.103 369.016 66.891 365.187C64.68 361.368 59.773 360.054 55.961 362.258ZM456.039 149.742L474.773 138.93C478.601 136.719 479.914 131.829 477.702 128C475.483 124.18 470.593 122.867 466.772 125.071L448.038 135.883C444.21 138.094 442.897 142.984 445.109 146.813C447.342 150.666 452.248 151.932 456.039 149.742ZM146.812 445.109C142.984 442.898 138.093 444.211 135.882 448.038L125.07 466.772C122.859 470.6 124.172 475.491 127.999 477.702C131.785 479.889 136.693 478.632 138.929 474.773L149.741 456.039C151.953 452.21 150.641 447.32 146.812 445.109ZM365.188 66.891C368.974 69.078 373.882 67.821 376.118 63.962L386.93 45.228C389.141 41.4 387.828 36.509 384.001 34.298C380.173 32.095 375.282 33.408 373.071 37.227L362.259 55.961C360.047 59.79 361.359 64.68 365.188 66.891Z" fill="#333333"/>
</g>
<defs>
<clipPath id="clip0_330_24">
<rect width="512" height="512" fill="white"/>
</clipPath>
</defs>
</svg>
