<svg width="347" height="447" viewBox="0 0 347 447" fill="none" xmlns="http://www.w3.org/2000/svg">
<path d="M165.957 0.0212135V0.134641H165.745C158.096 1.14896 153.401 4.90842 150.207 10.4552L150.065 10.6747L134.413 49.8145C126.956 52.0843 119.711 55.0211 112.77 58.5961L75.5743 42.679C71.7499 40.8632 67.6139 41.0192 64.1082 41.8491C60.6025 42.6719 57.7059 43.9985 55.6308 46.0697L45.5457 56.1699L45.4041 56.3617C40.7156 62.4973 40.057 68.4697 41.7142 74.6478L41.785 74.8816L57.8121 112.44C53.8105 119.894 50.5466 127.721 48.067 135.812L11.6927 150.423C7.71253 151.856 4.90797 154.892 3.01702 157.949C1.11899 161.02 0 164.006 0 166.943V181.221L0.0708237 181.456C1.08358 189.116 4.83007 193.798 10.3613 197.004L10.5808 197.132L48.1165 212.19C50.6378 220.276 53.9381 228.079 57.975 235.519L42.5783 270.857L42.5074 271.112C40.5669 278.361 40.4253 286.136 45.5882 291.584L55.7582 301.784L56.0061 301.925C62.6776 306.656 69.2711 307.43 75.6026 304.855L112.168 289.058C117.975 292.051 124.052 294.47 130.242 296.555C126.913 276.787 116.106 261.019 104.739 244.407C91.0772 224.468 76.8349 203.246 76.8349 173.27C76.8349 120.753 119.696 78.1233 172.445 78.1233C225.193 78.1233 268.055 120.753 268.055 173.27C268.055 205.97 253.72 225.71 240.073 244.088C228.55 259.615 217.629 274.233 214.485 296.123C220.689 293.945 226.737 291.377 232.544 288.285L270.328 304.769L270.576 304.84C277.814 306.783 285.576 306.911 291.015 301.74L301.185 291.555L301.355 291.307C306.072 284.625 306.872 278.021 304.301 271.68V271.609L287.339 232.235C290.427 226.128 293.026 219.794 295.116 213.282L334.507 197.791L334.727 197.656C341.221 193.904 346.809 188.52 347 181.009V166.525L346.929 166.241C345.548 158.169 341.426 152.941 335.13 150.281H335.059L294.932 134.301C292.877 127.835 290.32 121.541 287.283 115.476L304.245 75.7046C306.051 71.8672 305.874 67.7319 305.059 64.2138C304.238 60.7027 302.913 57.8014 300.838 55.7231L290.753 45.6225L290.576 45.4878C284.457 40.7993 278.508 40.1326 272.332 41.7924L272.084 41.8634L231.971 59.0571C225.655 55.7391 219.077 52.949 212.303 50.7155L196.652 11.7177C195.235 7.72423 192.19 4.91544 189.13 3.01448C186.071 1.11353 183.089 0 180.157 0H165.894L165.957 0.0212135ZM172.459 85.2519C123.514 85.2519 83.9313 124.647 83.9313 173.306C83.9313 201.04 96.9625 220.518 110.589 240.428C127.338 266.346 137.452 284.227 139.937 312.231H156.347L106.991 170.369H133.974C135.816 150.558 152.289 134.904 172.558 134.904C192.863 134.904 209.456 150.544 211.248 170.369H236.078L189.045 312.231H204.91C207.643 280.312 219.634 259.813 234.4 239.882C248.033 221.525 260.987 203.955 260.987 173.306C260.987 124.647 221.404 85.2519 172.459 85.2519ZM174.442 92.3732C175.381 92.3976 176.272 92.7947 176.919 93.4772C177.566 94.1596 177.915 95.0713 177.891 96.0119C177.867 96.9526 177.47 97.8452 176.789 98.4931C176.107 99.1409 175.197 99.4907 174.258 99.4663C156.912 99.0391 139.964 104.703 126.35 115.476C112.737 126.249 103.315 141.453 99.7175 158.453C99.6203 158.908 99.4345 159.34 99.1707 159.724C98.9068 160.107 98.5702 160.435 98.1799 160.688C97.7895 160.941 97.3532 161.115 96.8959 161.2C96.4385 161.284 95.969 161.277 95.5142 161.18C95.0594 161.083 94.6282 160.896 94.2453 160.632C93.8623 160.368 93.535 160.031 93.2821 159.64C93.0293 159.249 92.8558 158.812 92.7715 158.354C92.6873 157.896 92.6939 157.426 92.7911 156.97C96.7472 138.358 107.073 121.716 121.982 109.92C136.891 98.1248 155.447 91.9181 174.442 92.3732ZM172.558 141.997C168.365 141.988 164.211 142.808 160.334 144.409C156.457 146.009 152.933 148.36 149.964 151.326C146.995 154.292 144.638 157.815 143.03 161.693C141.421 165.572 140.592 169.73 140.589 173.93C140.593 178.128 141.423 182.285 143.032 186.161C144.642 190.038 146.998 193.559 149.968 196.522C152.937 199.485 156.461 201.833 160.337 203.431C164.213 205.029 168.366 205.846 172.558 205.835C176.74 205.844 180.883 205.025 184.747 203.424C188.611 201.823 192.121 199.471 195.074 196.506C198.028 193.54 200.366 190.018 201.954 186.144C203.542 182.269 204.349 178.118 204.329 173.93C204.35 169.74 203.544 165.587 201.956 161.711C200.369 157.834 198.031 154.31 195.078 151.342C192.125 148.374 188.615 146.02 184.75 144.416C180.885 142.813 176.742 141.99 172.558 141.997ZM169.045 149.076H175.88V156.502C177.671 156.892 179.421 157.545 180.922 158.843L183.592 161.141L179.307 166.879L176.652 164.56C175.677 163.787 174.466 163.376 173.224 163.396C170.433 163.396 168.797 165.17 168.797 166.766C168.797 168.972 169.513 170.121 172.296 170.121C178.21 170.121 182.941 175.129 182.941 181.044C182.941 185.804 179.881 189.471 175.873 190.996V198.742H169.045V191.329C167.239 190.932 165.504 190.265 164.01 188.989L161.34 186.698L165.61 180.952L168.266 183.25C169.246 184.019 170.456 184.434 171.701 184.428C174.477 184.428 176.128 182.647 176.128 181.051C176.128 179.051 174.973 177.49 172.296 177.49C166.474 177.49 161.956 172.476 161.956 166.766C161.956 162.014 165.044 158.339 169.038 156.821L169.045 149.076ZM250.307 170.327C250.78 170.319 251.25 170.406 251.689 170.584C252.128 170.761 252.527 171.025 252.863 171.36C253.198 171.694 253.463 172.093 253.642 172.532C253.821 172.971 253.91 173.442 253.904 173.916C253.904 195.55 245.321 216.304 230.044 231.597C229.718 231.936 229.327 232.206 228.895 232.391C228.463 232.577 227.998 232.675 227.528 232.679C227.058 232.683 226.592 232.594 226.156 232.415C225.721 232.237 225.326 231.974 224.993 231.641C224.661 231.308 224.398 230.912 224.22 230.476C224.042 230.04 223.952 229.573 223.956 229.102C223.96 228.631 224.058 228.166 224.244 227.733C224.429 227.3 224.699 226.909 225.037 226.582C238.983 212.613 246.819 193.67 246.822 173.916C246.811 172.978 247.171 172.073 247.824 171.4C248.477 170.728 249.37 170.342 250.307 170.327ZM116.949 177.462L163.854 312.231H181.574L226.262 177.462H211.248C209.463 197.288 192.87 212.928 172.558 212.928C162.835 212.918 153.466 209.279 146.279 202.721C139.092 196.163 134.604 187.157 133.691 177.462H116.949ZM140.32 319.324C140.412 321.707 140.589 323.977 140.589 326.524H119.123V354.79H76.6295V361.883H126.205V333.617H140.589V358.336C140.589 358.762 140.674 359.174 140.823 359.564V404.505H98.0957V411.599H147.905V361.876H155.221C155.703 364.332 156.7 366.657 158.146 368.699C159.591 370.741 161.452 372.453 163.606 373.722C165.214 374.658 166.935 375.211 168.698 375.594V404.896H175.78V375.665C177.693 375.296 179.569 374.736 181.305 373.729C183.46 372.46 185.322 370.749 186.769 368.707C188.216 366.666 189.214 364.339 189.697 361.883H197.204L197.133 411.605H246.943V404.512H204.216L204.286 358.613C204.293 358.521 204.357 358.429 204.357 358.329V333.503H218.564V361.769H268.14V354.676H225.646V326.417H204.357C204.357 323.927 204.548 321.686 204.648 319.324H140.341H140.32ZM147.671 326.417H197.247V333.51H147.671V326.417ZM51.8418 340.603C47.1506 340.618 42.6558 342.492 39.3386 345.814C36.0214 349.136 34.1512 353.638 34.1363 358.336C34.1363 368.082 42.1037 376.069 51.8418 376.069C61.5798 376.069 69.5473 368.082 69.5473 358.336C69.5473 348.583 61.5798 340.603 51.8418 340.603ZM147.671 340.603H197.247V347.696H147.671V340.603ZM292.899 340.603C288.208 340.618 283.713 342.492 280.396 345.814C277.079 349.136 275.208 353.638 275.193 358.336C275.193 368.082 283.161 376.069 292.899 376.069C302.637 376.069 310.605 368.082 310.605 358.336C310.605 348.583 302.637 340.603 292.899 340.603ZM73.4354 390.255C68.7442 390.27 64.2494 392.144 60.9322 395.466C57.615 398.788 55.7449 403.289 55.7299 407.988C55.7299 417.734 63.6974 425.721 73.4354 425.721C83.1735 425.721 91.141 417.734 91.141 407.988C91.141 398.235 83.1735 390.255 73.4354 390.255ZM271.61 390.255C266.919 390.27 262.424 392.144 259.107 395.466C255.789 398.788 253.919 403.289 253.904 407.988C253.904 417.734 261.872 425.721 271.61 425.721C281.348 425.721 289.315 417.734 289.315 407.988C289.315 398.235 281.348 390.255 271.61 390.255ZM172.239 411.534C167.548 411.549 163.053 413.423 159.736 416.745C156.419 420.067 154.549 424.569 154.534 429.267C154.534 439.013 162.501 447 172.239 447C181.977 447 189.945 439.013 189.945 429.267C189.945 419.514 181.977 411.534 172.239 411.534Z" fill="#333333"/>
</svg>
