<svg width="386" height="274" viewBox="0 0 386 274" fill="none" xmlns="http://www.w3.org/2000/svg">
<path d="M365.715 0H20.2045C9.09324 0 0 10.1063 0 20.1C0 30.0937 9.09324 40.192 20.2045 40.192H25.0848V80.392H361.326V40.192H365.715C376.835 40.192 385.92 30.0937 385.92 20.1C385.92 10.1063 376.835 0 365.715 0ZM192.96 60.4608C187.38 60.4608 182.862 55.8056 182.862 50.0731C182.862 44.3406 187.38 39.6854 192.96 39.6854C198.548 39.6854 203.058 44.3406 203.058 50.0731C203.058 55.8056 198.548 60.4608 192.96 60.4608ZM25.0848 160.784H361.326V96.48H25.0848V160.784ZM192.96 117.577C198.548 117.577 203.058 122.224 203.058 127.957C203.058 133.697 198.548 138.344 192.96 138.344C187.38 138.344 182.862 133.697 182.862 127.957C182.854 122.224 187.38 117.577 192.96 117.577ZM25.0848 216.236V262.98C25.0848 268.689 25.8004 273.368 31.356 273.368H71.749C77.3046 273.368 79.8211 268.689 79.8211 262.98V233.152H306.589V262.98C306.589 268.689 308.615 273.368 314.163 273.368H354.564C360.104 273.368 361.318 268.689 361.318 262.98V176.88H25.0848V216.236ZM192.96 195.468C198.548 195.468 203.058 200.124 203.058 205.848C203.058 211.597 198.548 216.228 192.96 216.228C187.38 216.228 182.862 211.597 182.862 205.848C182.854 200.132 187.38 195.468 192.96 195.468Z" fill="#333333"/>
</svg>
