<svg width="203" height="413" viewBox="0 0 203 413" fill="none" xmlns="http://www.w3.org/2000/svg">
<path d="M202.497 246.041C202.497 250.769 199.561 254.638 195.824 254.638H185.481L165.662 405.586C165.128 409.712 162.325 412.807 159.055 412.807H43.9447C40.6749 412.807 37.939 409.712 37.4051 405.586L17.9865 254.638H7.17607C3.50588 254.638 0.502991 250.769 0.502991 246.041C0.502991 241.314 3.50588 237.445 7.17607 237.445H94.8603V207.617C91.1901 206.327 87.7201 203.92 84.7172 200.396C84.3836 199.966 84.0499 199.45 83.783 198.934L79.312 190.768C76.7233 186.021 73.2866 182.145 69.2915 179.467C65.2965 176.789 60.8602 175.388 56.3567 175.381H50.5511C46.8141 175.381 43.878 171.513 43.878 166.785C43.878 161.971 46.8141 158.189 50.5511 158.189H56.3567C69.8363 158.189 82.5151 166.613 90.2559 180.883L94.2597 188.275C94.4599 188.447 94.6601 188.705 94.8603 188.791V119.076C91.1901 117.787 87.7201 115.294 84.7172 111.769C84.3836 111.34 84.0499 110.91 83.783 110.394L79.312 102.142C76.7233 97.3946 73.2866 93.5187 69.2915 90.8408C65.2965 88.1629 60.8602 86.7615 56.3567 86.7547H50.5511C46.8141 86.7547 43.878 82.8864 43.878 78.1585C43.878 73.4306 46.8141 69.5624 50.5511 69.5624H56.3567C69.8363 69.5624 82.5151 78.0726 90.2559 92.2562L94.2597 99.6489C94.4599 99.8208 94.6601 100.079 94.8603 100.165V39.7337C91.1922 38.3032 87.8182 35.8364 84.9841 32.5129L72.0384 17.3837H50.7513C47.0811 17.3837 44.0782 13.5154 44.0782 8.78756C44.0782 3.97371 47.0811 0.191406 50.7513 0.191406H74.6409C76.3092 0.191406 77.9107 0.96506 79.1118 2.42641L93.9928 19.7906C98.4638 25.1203 105.204 25.1203 109.675 19.7906L124.355 2.42641C125.556 0.96506 127.158 0.191406 128.826 0.191406H152.716C156.453 0.191406 159.389 3.97371 159.389 8.78756C159.389 13.5154 156.453 17.3837 152.716 17.3837H131.429L118.75 32.427C115.68 36.1233 112.01 38.6162 108.206 39.9056V100.251C108.473 100.079 108.674 99.8208 108.94 99.563L112.811 92.5141C116.609 85.4344 121.684 79.6474 127.6 75.6498C133.516 71.6522 140.096 69.5633 146.777 69.5624H152.516C156.186 69.5624 159.189 73.4306 159.189 78.1585C159.189 82.8864 156.186 86.7547 152.516 86.7547H146.777C137.568 86.7547 128.96 92.5141 123.755 102.228L119.484 110.222C119.15 110.738 118.883 111.254 118.483 111.684C115.413 115.294 111.877 117.787 108.206 119.076V188.877C108.473 188.705 108.674 188.447 108.94 188.189L112.811 181.054C116.612 173.985 121.689 168.211 127.606 164.228C133.522 160.245 140.101 158.173 146.777 158.189H152.516C156.186 158.189 159.189 161.971 159.189 166.785C159.189 171.513 156.186 175.381 152.516 175.381H146.777C137.568 175.381 128.96 181.14 123.755 190.854L119.484 198.849C119.15 199.364 118.883 199.88 118.483 200.31C115.413 203.92 111.877 206.327 108.206 207.617V237.445H195.824C199.561 237.445 202.497 241.314 202.497 246.041Z" fill="#333333"/>
</svg>
