<svg width="260" height="349" viewBox="0 0 260 349" fill="none" xmlns="http://www.w3.org/2000/svg">
<path d="M8.25 2H252C253.658 2 255.247 2.65848 256.419 3.83058C257.592 5.00268 258.25 6.5924 258.25 8.25V80.625H2V8.25C2 6.5924 2.65848 5.00268 3.83058 3.83058C5.00269 2.65848 6.5924 2 8.25 2Z" stroke="#333333" stroke-width="3" stroke-miterlimit="10"/>
<path d="M258.25 80.625H2V159.25H258.25V80.625Z" stroke="#333333" stroke-width="3" stroke-miterlimit="10"/>
<path d="M2 159.25H130.125V316.437H8.25C6.5924 316.437 5.00269 315.779 3.83058 314.607C2.65848 313.435 2 311.845 2 310.187V159.25Z" stroke="#333333" stroke-width="3" stroke-miterlimit="10"/>
<path d="M27 316.438V346.75" stroke="#333333" stroke-width="3" stroke-linecap="round" stroke-linejoin="round"/>
<path d="M233.25 316.438V346.75" stroke="#333333" stroke-width="3" stroke-linecap="round" stroke-linejoin="round"/>
<path d="M223.125 2H252C253.658 2 255.247 2.65848 256.419 3.83058C257.592 5.00268 258.25 6.5924 258.25 8.25V80.625H223.125V2Z" stroke="#333333" stroke-width="3" stroke-miterlimit="10"/>
<path d="M223.062 2H187.938V80.625H223.062V2Z" stroke="#333333" stroke-width="3" stroke-miterlimit="10"/>
<path d="M37.125 80.625H2V159.25H37.125V80.625Z" stroke="#333333" stroke-width="3" stroke-miterlimit="10"/>
<path d="M130.125 159.25H258.25V310.187C258.25 311.845 257.592 313.435 256.419 314.607C255.247 315.779 253.658 316.437 252 316.437H130.125V159.25Z" stroke="#333333" stroke-width="3" stroke-miterlimit="10"/>
<path d="M91.0625 249.875C97.6899 249.875 103.062 244.502 103.062 237.875C103.062 231.248 97.6899 225.875 91.0625 225.875C84.4351 225.875 79.0625 231.248 79.0625 237.875C79.0625 244.502 84.4351 249.875 91.0625 249.875Z" fill="#333333"/>
<path d="M169.375 250.063C176.106 250.063 181.562 244.606 181.562 237.875C181.562 231.144 176.106 225.688 169.375 225.688C162.644 225.688 157.188 231.144 157.188 237.875C157.188 244.606 162.644 250.063 169.375 250.063Z" fill="#333333"/>
</svg>
