<svg width="513" height="512" viewBox="0 0 513 512" fill="none" xmlns="http://www.w3.org/2000/svg">
<path d="M508.923 149.93L420.323 85.5C422.18 80.4647 422.523 74.9958 421.309 69.7681C420.095 64.5403 417.377 59.7823 413.49 56.081C409.604 52.3796 404.719 49.8969 399.438 48.9389C394.158 47.9809 388.712 48.5896 383.773 50.69C368.568 34.6746 350.263 21.9214 329.971 13.2069C309.68 4.49235 287.827 -0.00113558 265.743 2.15264e-07H238.643C205.909 0.0645189 174.483 12.8601 151.013 35.68C119.903 29.8426 87.7329 35.7863 60.762 52.3549C33.7911 68.9235 13.9477 94.9322 5.09179 125.322C-3.76411 155.711 -0.999216 188.308 12.8486 216.772C26.6965 245.236 50.637 267.531 80.0132 279.32V464.5C80.0125 465.485 80.2064 466.46 80.584 467.37C80.9616 468.279 81.5153 469.105 82.2132 469.8L122.213 509.8C122.908 510.498 123.734 511.052 124.644 511.429C125.553 511.807 126.528 512.002 127.513 512.002C128.498 512.002 129.473 511.807 130.383 511.429C131.292 511.052 132.118 510.498 132.813 509.8L172.813 469.8C173.511 469.105 174.065 468.279 174.442 467.37C174.82 466.46 175.014 465.485 175.013 464.5V444.5C175.014 443.515 174.82 442.54 174.442 441.63C174.065 440.721 173.511 439.895 172.813 439.2L158.123 424.5L172.813 409.8C173.51 409.104 174.063 408.278 174.44 407.369C174.817 406.459 175.011 405.484 175.011 404.5C175.011 403.516 174.817 402.541 174.44 401.631C174.063 400.722 173.51 399.896 172.813 399.2L158.123 384.5L172.813 369.8C173.51 369.104 174.063 368.278 174.44 367.369C174.817 366.459 175.011 365.484 175.011 364.5C175.011 363.516 174.817 362.541 174.44 361.631C174.063 360.722 173.51 359.896 172.813 359.2L158.123 344.5L172.813 329.8C173.511 329.105 174.065 328.279 174.442 327.37C174.82 326.46 175.014 325.485 175.013 324.5V279.32C197.1 270.416 216.26 255.518 230.331 236.307C244.403 217.095 252.827 194.334 254.653 170.59C262.005 172.198 269.491 173.118 277.013 173.34V436C277.013 437.989 277.803 439.897 279.21 441.303C280.616 442.71 282.524 443.5 284.513 443.5H504.513C506.502 443.5 508.41 442.71 509.817 441.303C511.223 439.897 512.013 437.989 512.013 436V156C512.012 154.816 511.732 153.65 511.195 152.595C510.658 151.54 509.88 150.627 508.923 149.93ZM407.013 76C407.013 78.4723 406.28 80.889 404.907 82.9446C403.533 85.0002 401.581 86.6024 399.297 87.5485C397.013 88.4946 394.499 88.7421 392.075 88.2598C389.65 87.7775 387.423 86.587 385.674 84.8388C383.926 83.0907 382.736 80.8634 382.253 78.4386C381.771 76.0139 382.019 73.5005 382.965 71.2165C383.911 68.9324 385.513 66.9801 387.569 65.6066C389.624 64.2331 392.041 63.5 394.513 63.5C397.827 63.5053 401.003 64.8239 403.346 67.167C405.689 69.5101 407.008 72.6864 407.013 76ZM160.013 321.39L142.213 339.2C141.517 339.896 140.964 340.722 140.587 341.631C140.21 342.541 140.016 343.516 140.016 344.5C140.016 345.484 140.21 346.459 140.587 347.369C140.964 348.278 141.517 349.104 142.213 349.8L156.903 364.5L142.213 379.2C141.517 379.896 140.964 380.722 140.587 381.631C140.21 382.541 140.016 383.516 140.016 384.5C140.016 385.484 140.21 386.459 140.587 387.369C140.964 388.278 141.517 389.104 142.213 389.8L156.903 404.5L142.213 419.2C141.517 419.896 140.964 420.722 140.587 421.631C140.21 422.541 140.016 423.516 140.016 424.5C140.016 425.484 140.21 426.459 140.587 427.369C140.964 428.278 141.517 429.104 142.213 429.8L160.013 447.61V461.39L127.513 493.89L95.0132 461.39V284.3C116.318 289.9 138.708 289.9 160.013 284.3V321.39ZM127.513 273.5C97.6764 273.5 69.0616 261.647 47.9637 240.55C26.8659 219.452 15.0132 190.837 15.0132 161C15.0132 131.163 26.8659 102.548 47.9637 81.4505C69.0616 60.3526 97.6764 48.5 127.513 48.5C131.354 48.5012 135.192 48.6948 139.013 49.08C133.289 56.4836 128.415 64.5073 124.483 73C124.383 73.21 124.303 73.43 124.203 73.65C116.307 74.4549 108.978 78.1205 103.598 83.9558C98.2183 89.7911 95.1589 97.393 94.9967 105.328C94.8346 113.264 97.581 120.984 102.718 127.034C107.855 133.085 115.028 137.046 122.885 138.173C130.742 139.3 138.739 137.514 145.369 133.151C152 128.788 156.805 122.151 158.88 114.49C160.954 106.829 160.155 98.6733 156.631 91.5612C153.108 84.4491 147.105 78.8715 139.753 75.88C144.09 67.288 149.536 59.303 155.953 52.13C182.44 59.0266 205.504 75.3425 220.826 98.0219C236.148 120.701 242.677 148.189 239.189 175.335C235.701 202.482 222.437 227.427 201.88 245.497C181.323 263.567 154.883 273.523 127.513 273.5ZM132.563 122.75C128.28 124.118 123.634 123.784 119.59 121.817C115.546 119.85 112.416 116.401 110.848 112.186C109.281 107.971 109.397 103.315 111.172 99.1834C112.948 95.052 116.247 91.7632 120.383 90C120.383 90.61 120.333 91.22 120.333 91.83C120.291 103.324 124.67 114.394 132.563 122.75ZM143.693 112.66C138.311 107.08 135.312 99.6231 135.333 91.87C135.333 91.37 135.333 90.87 135.333 90.39C139.276 92.3652 142.326 95.7592 143.869 99.8903C145.412 104.021 145.335 108.583 143.653 112.66H143.693ZM254.873 155.23C253.677 129.593 244.787 104.91 229.362 84.398C213.937 63.8857 192.691 48.4946 168.393 40.23C188.195 23.9627 213.016 15.0484 238.643 15H265.743C285.59 14.9992 305.233 18.9958 323.501 26.7512C341.769 34.5066 358.289 45.862 372.073 60.14C369.494 63.7755 367.839 67.9846 367.252 72.4032C366.665 76.8219 367.163 81.3171 368.703 85.5L280.103 149.93C279.147 150.627 278.369 151.54 277.832 152.595C277.295 153.65 277.014 154.816 277.013 156V158.33C269.545 158.07 262.125 157.031 254.873 155.23ZM497.013 428.5H292.013V159.82L377.543 97.62C382.38 101.429 388.357 103.5 394.513 103.5C400.669 103.5 406.647 101.429 411.483 97.62L497.013 159.82V428.5Z" fill="#333333"/>
<path d="M399.203 199.549C397.873 198.481 396.219 197.898 394.513 197.898C392.808 197.898 391.153 198.481 389.823 199.549L319.823 255.659C318.27 256.902 317.275 258.712 317.057 260.69C316.838 262.667 317.414 264.651 318.658 266.204C319.902 267.756 321.712 268.752 323.689 268.97C325.667 269.188 327.65 268.612 329.203 267.369L335.683 262.169V326.599C335.683 328.588 336.473 330.495 337.88 331.902C339.286 333.308 341.194 334.099 343.183 334.099H445.843C447.832 334.099 449.74 333.308 451.147 331.902C452.553 330.495 453.343 328.588 453.343 326.599V262.169L459.823 267.369C461.376 268.612 463.359 269.188 465.337 268.97C467.315 268.752 469.124 267.756 470.368 266.204C471.612 264.651 472.188 262.667 471.97 260.69C471.751 258.712 470.756 256.902 469.203 255.659L399.203 199.549ZM402.013 319.099H387.013V301.599C387.013 299.609 387.803 297.702 389.21 296.295C390.616 294.889 392.524 294.099 394.513 294.099C396.502 294.099 398.41 294.889 399.817 296.295C401.223 297.702 402.013 299.609 402.013 301.599V319.099ZM438.343 319.099H417.013V301.599C417.013 295.631 414.643 289.908 410.423 285.689C406.204 281.469 400.481 279.099 394.513 279.099C388.546 279.099 382.823 281.469 378.603 285.689C374.384 289.908 372.013 295.631 372.013 301.599V319.099H350.683V250.099L394.513 214.999L438.343 250.139V319.099ZM445.843 349.099H343.183C341.194 349.099 339.286 349.889 337.88 351.295C336.473 352.702 335.683 354.609 335.683 356.599V386.599C335.683 388.588 336.473 390.495 337.88 391.902C339.286 393.308 341.194 394.099 343.183 394.099H445.843C447.832 394.099 449.74 393.308 451.147 391.902C452.553 390.495 453.343 388.588 453.343 386.599V356.599C453.343 354.609 452.553 352.702 451.147 351.295C449.74 349.889 447.832 349.099 445.843 349.099ZM438.343 379.099H350.683V364.099H438.343V379.099Z" fill="#333333"/>
</svg>
