<svg width="230" height="230" viewBox="0 0 230 230" fill="none" xmlns="http://www.w3.org/2000/svg">
<path d="M42 145.857H47.7632V157.286C47.7632 158.801 48.3703 160.255 49.4511 161.326C50.5319 162.398 51.9978 163 53.5263 163C55.0548 163 56.5207 162.398 57.6015 161.326C58.6823 160.255 59.2895 158.801 59.2895 157.286V145.857H63.1316V157.286C63.1316 158.801 63.7388 160.255 64.8196 161.326C65.9004 162.398 67.3663 163 68.8947 163C70.4232 163 71.8891 162.398 72.9699 161.326C74.0507 160.255 74.6579 158.801 74.6579 157.286V145.857H78.5V157.286C78.5 158.801 79.1072 160.255 80.188 161.326C81.2688 162.398 82.7347 163 84.2632 163C85.7916 163 87.2575 162.398 88.3383 161.326C89.4191 160.255 90.0263 158.801 90.0263 157.286V145.857H93.8684V157.286C93.8684 158.801 94.4756 160.255 95.5564 161.326C96.6372 162.398 98.1031 163 99.6316 163C101.16 163 102.626 162.398 103.707 161.326C104.788 160.255 105.395 158.801 105.395 157.286V145.857H109.237V157.286C109.237 158.801 109.844 160.255 110.925 161.326C112.006 162.398 113.472 163 115 163C116.528 163 117.994 162.398 119.075 161.326C120.156 160.255 120.763 158.801 120.763 157.286V145.857H124.605V157.286C124.605 158.801 125.212 160.255 126.293 161.326C127.374 162.398 128.84 163 130.368 163C131.897 163 133.363 162.398 134.444 161.326C135.524 160.255 136.132 158.801 136.132 157.286V145.857H139.974V157.286C139.974 158.801 140.581 160.255 141.662 161.326C142.742 162.398 144.208 163 145.737 163C147.265 163 148.731 162.398 149.812 161.326C150.893 160.255 151.5 158.801 151.5 157.286V145.857H155.342V157.286C155.342 158.801 155.949 160.255 157.03 161.326C158.111 162.398 159.577 163 161.105 163C162.634 163 164.1 162.398 165.18 161.326C166.261 160.255 166.868 158.801 166.868 157.286V145.857H170.711V157.286C170.711 158.801 171.318 160.255 172.399 161.326C173.479 162.398 174.945 163 176.474 163C178.002 163 179.468 162.398 180.549 161.326C181.63 160.255 182.237 158.801 182.237 157.286V145.857H188L166.1 123H63.9L42 145.857Z" fill="#333333"/>
<path d="M103.5 203.983C103.5 200.933 104.712 198.008 106.869 195.851C109.025 193.695 111.95 192.483 115 192.483C118.05 192.483 120.975 193.695 123.131 195.851C125.288 198.008 126.5 200.933 126.5 203.983V230H183.997V161C183.09 162.169 181.928 163.114 180.599 163.765C179.27 164.416 177.81 164.754 176.331 164.754C174.852 164.754 173.392 164.416 172.063 163.765C170.734 163.114 169.572 162.169 168.665 161C167.757 162.169 166.595 163.114 165.266 163.765C163.938 164.416 162.478 164.754 160.998 164.754C159.519 164.754 158.059 164.416 156.73 163.765C155.402 163.114 154.239 162.169 153.332 161C152.425 162.169 151.262 163.114 149.933 163.765C148.605 164.416 147.145 164.754 145.665 164.754C144.186 164.754 142.726 164.416 141.397 163.765C140.069 163.114 138.906 162.169 137.999 161C137.092 162.169 135.929 163.114 134.601 163.765C133.272 164.416 131.812 164.754 130.333 164.754C128.853 164.754 127.393 164.416 126.065 163.765C124.736 163.114 123.574 162.169 122.666 161C121.759 162.169 120.597 163.114 119.268 163.765C117.939 164.416 116.479 164.754 115 164.754C113.521 164.754 112.061 164.416 110.732 163.765C109.403 163.114 108.241 162.169 107.334 161C106.426 162.169 105.264 163.114 103.935 163.765C102.607 164.416 101.147 164.754 99.6673 164.754C98.1878 164.754 96.728 164.416 95.3993 163.765C94.0705 163.114 92.9081 162.169 92.0009 161C91.0936 162.169 89.9312 163.114 88.6025 163.765C87.2738 164.416 85.8139 164.754 84.3345 164.754C82.8551 164.754 81.3952 164.416 80.0665 163.765C78.7378 163.114 77.5754 162.169 76.6681 161C75.7609 162.169 74.5985 163.114 73.2698 163.765C71.9411 164.416 70.4812 164.754 69.0018 164.754C67.5223 164.754 66.0625 164.416 64.7338 163.765C63.4051 163.114 62.2427 162.169 61.3354 161C60.4281 162.169 59.2657 163.114 57.937 163.765C56.6083 164.416 55.1485 164.754 53.669 164.754C52.1896 164.754 50.7297 164.416 49.401 163.765C48.0723 163.114 46.9099 162.169 46.0026 161V230H103.5V203.983ZM24.3528 126.5C21.005 118.058 20.0794 108.849 21.6803 99.9099C23.2812 90.9705 27.345 82.6553 33.4145 75.9L41.0808 83.6127L46.0026 42.1667L4.73456 47.0925L12.6539 55.0467C-3.79428 74.2133 -4.39226 101.683 11.9448 118.09C15.5133 121.651 19.7234 124.504 24.3528 126.5ZM217.346 105.95C233.794 86.7828 234.392 59.317 218.055 42.9103C214.487 39.3494 210.277 36.4958 205.647 34.5C208.995 42.942 209.921 52.1507 208.32 61.0901C206.719 70.0295 202.655 78.3447 196.586 85.1L188.919 77.3873L183.997 118.833L225.265 113.908L217.346 105.95ZM153.332 38.3333C153.332 30.7517 151.084 23.3404 146.872 17.0365C142.66 10.7326 136.673 5.81933 129.669 2.91797C122.665 0.0166092 114.957 -0.742519 107.522 0.736581C100.086 2.21568 93.2561 5.86658 87.8953 11.2276C82.5345 16.5886 78.8837 23.4189 77.4047 30.8549C75.9256 38.2908 76.6847 45.9984 79.586 53.0029C82.4872 60.0074 87.4003 65.9942 93.704 70.2063C100.008 74.4185 107.419 76.6667 115 76.6667C125.166 76.6667 134.916 72.628 142.105 65.4391C149.293 58.2502 153.332 48.5 153.332 38.3333ZM103.5 46.4677V46H111.167V46.4677C111.168 47.36 111.523 48.2155 112.154 48.8464C112.785 49.4774 113.64 49.8323 114.532 49.8333H115.468C116.36 49.8323 117.215 49.4774 117.846 48.8464C118.477 48.2155 118.832 47.36 118.833 46.4677V45.5323C118.832 44.64 118.477 43.7845 117.846 43.1536C117.215 42.5226 116.36 42.1677 115.468 42.1667H114.532C111.607 42.1636 108.803 41.0003 106.735 38.932C104.667 36.8637 103.503 34.0594 103.5 31.1343V30.199C103.508 27.8701 104.255 25.6037 105.632 23.726C107.01 21.8482 108.948 20.4559 111.167 19.7493V15.3333H118.833V19.7493C121.052 20.4559 122.99 21.8482 124.368 23.726C125.745 25.6037 126.492 27.8701 126.5 30.199V30.6667H118.833V30.199C118.832 29.3067 118.477 28.4512 117.846 27.8203C117.215 27.1893 116.36 26.8344 115.468 26.8333H114.532C113.64 26.8344 112.785 27.1893 112.154 27.8203C111.523 28.4512 111.168 29.3067 111.167 30.199V31.1343C111.168 32.0267 111.523 32.8821 112.154 33.5131C112.785 34.1441 113.64 34.499 114.532 34.5H115.468C118.393 34.5031 121.197 35.6664 123.265 37.7347C125.333 39.803 126.497 42.6073 126.5 45.5323V46.4677C126.492 48.7966 125.745 51.063 124.368 52.9407C122.99 54.8185 121.052 56.2108 118.833 56.9173V61.3333H111.167V56.9173C108.948 56.2108 107.01 54.8185 105.632 52.9407C104.255 51.063 103.508 48.7966 103.5 46.4677Z" fill="#333333"/>
</svg>
