<svg width="260" height="339" viewBox="0 0 260 339" fill="none" xmlns="http://www.w3.org/2000/svg">
<path d="M152.297 138.985V112.812C152.297 111.317 151.703 109.882 150.645 108.824C149.587 107.766 148.152 107.172 146.656 107.172H135.375V56.4062H157.937C159.433 56.4062 160.868 55.812 161.926 54.7541C162.984 53.6963 163.578 52.2616 163.578 50.7656V33.8438H191.781C193.277 33.8438 194.712 33.2495 195.77 32.1916C196.828 31.1338 197.422 29.6991 197.422 28.2031V5.64062C197.422 4.14464 196.828 2.70992 195.77 1.6521C194.712 0.594278 193.277 0 191.781 0H67.6875C66.1915 0 64.7568 0.594278 63.699 1.6521C62.6411 2.70992 62.0469 4.14464 62.0469 5.64062V28.2031C62.0469 29.6991 62.6411 31.1338 63.699 32.1916C64.7568 33.2495 66.1915 33.8438 67.6875 33.8438H95.8906V50.7656C95.8906 52.2616 96.4849 53.6963 97.5427 54.7541C98.6005 55.812 100.035 56.4062 101.531 56.4062H124.094V107.172H112.812C111.317 107.172 109.882 107.766 108.824 108.824C107.766 109.882 107.172 111.317 107.172 112.812V138.985C90.5509 144.36 76.3947 155.492 67.2519 170.377C58.1091 185.261 54.5804 202.921 57.3011 220.176C60.0217 237.432 68.813 253.149 82.0921 264.498C95.3713 275.848 112.266 282.084 129.734 282.084C147.203 282.084 164.097 275.848 177.377 264.498C190.656 253.149 199.447 237.432 202.168 220.176C204.888 202.921 201.36 185.261 192.217 170.377C183.074 155.492 168.918 144.36 152.297 138.985ZM73.3281 22.5625V11.2812H186.141V22.5625H73.3281ZM107.172 45.125V33.8438H152.297V45.125H107.172ZM118.453 118.453H141.016V136.334C133.549 135.055 125.92 135.055 118.453 136.334V118.453ZM135.375 208.703C135.375 209.819 135.044 210.909 134.424 211.837C133.805 212.764 132.924 213.487 131.893 213.914C130.862 214.341 129.728 214.453 128.634 214.235C127.54 214.018 126.535 213.481 125.746 212.692C124.957 211.903 124.42 210.898 124.202 209.804C123.984 208.709 124.096 207.575 124.523 206.545C124.95 205.514 125.673 204.633 126.601 204.013C127.528 203.393 128.619 203.062 129.734 203.062C131.23 203.062 132.665 203.657 133.723 204.715C134.781 205.772 135.375 207.207 135.375 208.703ZM129.734 270.75C113.813 270.683 98.5267 264.497 87.0385 253.474C75.5502 242.45 68.7392 227.433 68.0145 211.527C67.2899 195.622 72.7072 180.047 83.1456 168.025C93.5839 156.003 108.244 148.453 124.094 146.938V192.797C120.33 194.127 117.158 196.745 115.139 200.188C113.119 203.632 112.381 207.678 113.056 211.612C113.731 215.546 115.775 219.116 118.827 221.688C121.879 224.261 125.743 225.673 129.734 225.673C133.726 225.673 137.589 224.261 140.641 221.688C143.693 219.116 145.738 215.546 146.413 211.612C147.088 207.678 146.35 203.632 144.33 200.188C142.31 196.745 139.138 194.127 135.375 192.797V146.938C151.224 148.453 165.885 156.003 176.323 168.025C186.761 180.047 192.179 195.622 191.454 211.527C190.73 227.433 183.919 242.45 172.43 253.474C160.942 264.497 145.656 270.683 129.734 270.75Z" fill="#333333"/>
<path d="M135.375 310.234H124.094V338.438H135.375V310.234Z" fill="#333333"/>
<path d="M205.518 276.511L197.541 284.488L217.484 304.431L225.461 296.454L205.518 276.511Z" fill="#333333"/>
<path d="M259.469 203.062H231.266V214.344H259.469V203.062Z" fill="#333333"/>
<path d="M217.48 112.979L197.537 132.922L205.514 140.899L225.457 120.956L217.48 112.979Z" fill="#333333"/>
<path d="M41.9851 112.976L34.0081 120.953L53.9507 140.896L61.9277 132.919L41.9851 112.976Z" fill="#333333"/>
<path d="M28.2031 203.062H0V214.344H28.2031V203.062Z" fill="#333333"/>
<path d="M53.9563 276.511L34.0137 296.453L41.9907 304.43L61.9333 284.488L53.9563 276.511Z" fill="#333333"/>
</svg>
