<svg width="461" height="346" viewBox="0 0 461 346" fill="none" xmlns="http://www.w3.org/2000/svg">
<path fill-rule="evenodd" clip-rule="evenodd" d="M80.675 311.4V334.467C80.675 340.81 85.8612 346 92.2 346H149.825C156.164 346 161.35 340.81 161.35 334.467V311.4H299.65V334.467C299.65 340.81 304.836 346 311.175 346H368.8C375.139 346 380.325 340.81 380.325 334.467V311.4H391.735C397.843 311.4 403.721 308.978 408.1 304.595C412.364 300.213 414.785 294.331 414.785 288.218C414.785 274.493 414.669 257.078 414.669 242.2H46.1V288.333C46.1 294.446 48.5203 300.328 52.8998 304.595C57.164 308.978 63.0417 311.4 69.15 311.4H80.675ZM437.95 138.4H391.274C388.392 138.4 385.511 140.13 383.552 142.206C381.477 144.282 380.325 147.05 380.325 149.933V173H390.928C416.513 173 437.374 193.76 437.374 219.479V263.652C442.445 262.037 447.17 259.154 451.088 255.348C457.427 249.005 461 240.239 461 231.243V161.467C461 148.78 450.627 138.4 437.95 138.4ZM23.05 138.4H69.15C72.0312 138.4 75.3735 140.13 77.448 142.206C79.5225 144.282 80.675 147.05 80.675 149.933V173H70.072C57.7538 173 45.9402 177.897 37.2299 186.613C28.5196 195.33 23.6263 207.152 23.6263 219.479V263.652C18.5553 262.037 13.83 259.154 9.9115 255.348C3.57275 249.005 0 240.239 0 231.243V161.467C0 148.78 10.3725 138.4 23.05 138.4ZM46.1 219.133H414.785C414.788 216.103 414.194 213.102 413.036 210.303C411.879 207.503 410.181 204.959 408.04 202.816C405.899 200.673 403.357 198.974 400.559 197.816C397.761 196.658 394.763 196.064 391.735 196.067H69.15C63.0368 196.067 57.1739 198.497 52.8512 202.823C48.5285 207.149 46.1 213.016 46.1 219.133ZM46.1 115.91H69.7262C74.2007 115.91 78.6312 116.794 82.7637 118.511C86.8961 120.228 90.6492 122.744 93.8078 125.916C96.9664 129.088 99.4683 132.852 101.17 136.993C102.872 141.134 103.74 145.571 103.725 150.049V173.115H115.25V138.515C115.25 129.289 118.938 120.523 125.392 114.065C131.846 107.606 140.72 103.915 149.825 103.915H184.285C193.505 103.915 202.264 107.606 208.718 114.065C215.172 120.523 218.86 129.404 218.86 138.515V173.115H241.91V138.515C241.91 129.289 245.598 120.523 252.052 114.065C258.506 107.606 267.38 103.915 276.485 103.915H310.944C320.164 103.915 328.923 107.606 335.377 114.065C341.831 120.523 345.519 129.404 345.519 138.515V173.115H357.044V150.049C357.044 141.053 360.617 132.403 366.956 125.944C373.295 119.601 382.054 115.91 391.043 115.91H414.669V103.339C414.669 72.8907 402.568 55.2447 381.017 33.6773C370.366 23.0054 357.719 14.5383 343.797 8.75981C329.875 2.9813 314.952 0.00466592 299.88 0H160.543C130.117 0 100.959 12.11 79.4073 33.6773C57.8555 55.2447 45.7542 72.8907 45.7542 103.339V115.91H46.1ZM138.3 173H195.925V138.4C195.925 135.286 194.657 132.403 192.583 130.211C191.51 129.137 190.233 128.288 188.828 127.714C187.423 127.14 185.918 126.852 184.4 126.867H149.94C146.828 126.867 143.947 128.135 141.757 130.211C140.684 131.285 139.836 132.563 139.262 133.969C138.688 135.375 138.4 136.881 138.415 138.4V173H138.3ZM265.075 173H322.7V138.4C322.7 135.286 321.432 132.403 319.358 130.211C318.285 129.137 317.008 128.288 315.603 127.714C314.198 127.14 312.693 126.852 311.175 126.867H276.715C273.603 126.867 270.722 128.135 268.532 130.211C267.459 131.285 266.611 132.563 266.037 133.969C265.463 135.375 265.175 136.881 265.19 138.4V173H265.075ZM299.65 46.1333C299.65 39.79 294.464 34.6 288.125 34.6C281.786 34.6 276.6 39.79 276.6 46.1333C270.261 46.1333 265.075 51.3233 265.075 57.6667C265.075 64.01 270.261 69.2 276.6 69.2C276.6 75.5433 281.786 80.7333 288.125 80.7333C294.464 80.7333 299.65 75.5433 299.65 69.2C305.989 69.2 311.175 64.01 311.175 57.6667C311.175 51.3233 305.989 46.1333 299.65 46.1333ZM184.4 46.1333C184.4 39.79 179.214 34.6 172.875 34.6C166.536 34.6 161.35 39.79 161.35 46.1333C155.011 46.1333 149.825 51.3233 149.825 57.6667C149.825 64.01 155.011 69.2 161.35 69.2C161.35 75.5433 166.536 80.7333 172.875 80.7333C179.214 80.7333 184.4 75.5433 184.4 69.2C190.739 69.2 195.925 64.01 195.925 57.6667C195.925 51.3233 190.739 46.1333 184.4 46.1333Z" fill="white"/>
</svg>
