<svg width="90" height="80" viewBox="0 0 90 80" fill="none" xmlns="http://www.w3.org/2000/svg">
<path d="M89.4 38.9L84.4 43.9C84 44.3 83.5 44.5 83 44.5C82.5 44.5 82 44.3 81.6 43.9L76.6 38.9C75.8 38.1 75.8 36.9 76.6 36.1C77.4 35.3 78.6 35.3 79.4 36.1L80.9 37.6C79.7 18.9 64 4 45 4C29.9 4 16.3 13.5 11.2 27.7C10.8 28.7 9.7 29.3 8.6 28.9C7.6 28.5 7 27.4 7.4 26.3C13.1 10.6 28.2 0 45 0C66.3 0 83.8 16.7 84.9 37.7L86.6 36C87.4 35.2 88.6 35.2 89.4 36C90.2 36.9 90.2 38.1 89.4 38.9ZM81.4 51.1C80.4 50.7 79.2 51.3 78.8 52.3C73.7 66.5 60.1 76 45 76C26 76 10.3 61.1 9.1 42.4L10.6 43.9C11 44.3 11.5 44.5 12 44.5C12.5 44.5 13 44.3 13.4 43.9C14.2 43.1 14.2 41.9 13.4 41.1L8.4 36.1C7.6 35.3 6.4 35.3 5.6 36.1L0.6 41.1C-0.2 41.9 -0.2 43.1 0.6 43.9C1.4 44.7 2.6 44.7 3.4 43.9L5.1 42.2C6.2 63.3 23.7 80 45 80C61.8 80 76.9 69.4 82.6 53.7C83 52.6 82.4 51.5 81.4 51.1ZM28 61V39H24C23.2 39 22.4 38.5 22.1 37.7C21.8 36.9 22 36 22.7 35.5L43.7 17.5C44.4 16.9 45.6 16.9 46.3 17.5L67.3 35.5C67.9 36 68.2 36.9 67.9 37.7C67.6 38.5 66.9 39 66 39H62V61C62 62.1 61.1 63 60 63H30C28.9 63 28 62.1 28 61ZM48 59V49H42V59H48ZM58 39H32V59H38V47C38 45.9 38.9 45 40 45H50C51.1 45 52 45.9 52 47V59H58V39ZM29.4 35H60.6L45 21.6L29.4 35Z" fill="#333333"/>
</svg>
