<svg width="413" height="413" viewBox="0 0 413 413" fill="none" xmlns="http://www.w3.org/2000/svg">
<path d="M138.545 188.753H110V223.747H138.545C140.168 230.07 142.677 236.132 145.998 241.753L125.812 261.937L150.562 286.688L170.748 266.509C176.369 269.828 182.431 272.336 188.753 273.962V302.5H223.747V273.955C230.069 272.33 236.131 269.821 241.753 266.502L261.937 286.688L286.688 261.937L266.509 241.753C269.83 236.132 272.339 230.07 273.962 223.747H302.5V188.753H273.955C272.332 182.43 269.823 176.368 266.502 170.748L286.688 150.562L261.937 125.812L241.753 145.991C236.132 142.67 230.07 140.161 223.747 138.538V110H188.753V138.545C182.43 140.168 176.368 142.677 170.748 145.998L150.562 125.812L125.812 150.562L145.991 170.748C142.672 176.368 140.165 182.43 138.545 188.753ZM206.25 165C214.408 165 222.384 167.419 229.167 171.952C235.951 176.484 241.238 182.927 244.36 190.464C247.482 198.002 248.299 206.296 246.707 214.297C245.116 222.299 241.187 229.649 235.418 235.418C229.649 241.187 222.299 245.116 214.297 246.707C206.296 248.299 198.002 247.482 190.464 244.36C182.927 241.238 176.484 235.951 171.952 229.167C167.419 222.384 165 214.408 165 206.25C165.011 195.313 169.36 184.827 177.094 177.094C184.827 169.36 195.313 165.011 206.25 165Z" fill="#333333"/>
<path d="M206.25 233.75C221.438 233.75 233.75 221.438 233.75 206.25C233.75 191.062 221.438 178.75 206.25 178.75C191.062 178.75 178.75 191.062 178.75 206.25C178.75 221.438 191.062 233.75 206.25 233.75Z" fill="#333333"/>
<path d="M322.396 106.239L350.625 69.9394L342.561 61.875L306.261 90.1037L290.132 73.975L288.516 123.984L338.525 122.368L322.396 106.239Z" fill="#333333"/>
<path d="M69.9394 350.624L106.239 322.396L122.368 338.524L123.984 288.516L73.975 290.131L90.1037 306.26L61.875 342.56L69.9394 350.624Z" fill="#333333"/>
<path d="M288.516 288.516L290.132 338.524L306.261 322.396L342.561 350.624L350.625 342.56L322.396 306.26L338.525 290.131L288.516 288.516Z" fill="#333333"/>
<path d="M73.975 122.368L123.984 123.984L122.368 73.975L106.239 90.1037L69.9394 61.875L61.875 69.9394L90.1037 106.239L73.975 122.368Z" fill="#333333"/>
<path d="M200.523 82.5H211.977L217.711 36.6644H240.625L206.25 0L171.875 36.6644H194.789L200.523 82.5Z" fill="#333333"/>
<path d="M211.977 330H200.523L194.789 375.836H171.875L206.25 412.5L240.625 375.836H217.711L211.977 330Z" fill="#333333"/>
<path d="M330 211.977L375.836 217.711V240.625L412.5 206.25L375.836 171.875V194.789L330 200.523V211.977Z" fill="#333333"/>
<path d="M36.6644 217.711L82.5 211.977V200.523L36.6644 194.789V171.875L0 206.25L36.6644 240.625V217.711Z" fill="#333333"/>
</svg>
